<?xml version="1.0" standalone="no"?>
<!DOCTYPE svg PUBLIC "-//W3C//DTD SVG 20010904//EN"
 "http://www.w3.org/TR/2001/REC-SVG-20010904/DTD/svg10.dtd">
<svg version="1.0" xmlns="http://www.w3.org/2000/svg"
 width="29.000000pt" height="32.000000pt" viewBox="0 0 29.000000 32.000000"
 preserveAspectRatio="xMidYMid meet">

<g transform="translate(0.000000,32.000000) scale(0.100000,-0.100000)"
fill="#000000" stroke="none">
<path d="M200 310 c0 -5 5 -10 10 -10 6 0 10 5 10 10 0 6 -4 10 -10 10 -5 0
-10 -4 -10 -10z"/>
<path d="M155 230 c-4 -6 -16 -10 -26 -7 -25 7 -24 -5 1 -21 11 -7 20 -8 20
-3 0 5 7 11 15 13 9 2 12 8 6 17 -6 10 -10 10 -16 1z"/>
<path d="M80 180 c-11 -8 -7 -9 15 -4 37 8 45 14 19 14 -10 0 -26 -5 -34 -10z"/>
<path d="M220 129 c0 -30 -5 -60 -12 -67 -7 -7 -40 -12 -78 -12 l-65 -1 28
-24 c38 -34 79 -32 119 4 29 26 33 35 33 80 0 27 -6 56 -12 63 -10 10 -13 1
-13 -43z"/>
<path d="M60 145 c-7 -9 -11 -17 -9 -20 3 -2 10 5 17 15 14 24 10 26 -8 5z"/>
<path d="M90 144 c0 -8 5 -12 10 -9 6 4 8 11 5 16 -9 14 -15 11 -15 -7z"/>
<path d="M126 145 c-3 -9 -20 -22 -38 -30 -25 -11 -28 -14 -12 -15 21 0 72 45
62 55 -3 3 -8 -1 -12 -10z"/>
<path d="M175 140 c-10 -11 -16 -22 -13 -25 3 -3 13 6 22 20 20 30 16 32 -9 5z"/>
<path d="M135 120 c-3 -5 -1 -10 4 -10 6 0 11 5 11 10 0 6 -2 10 -4 10 -3 0
-8 -4 -11 -10z"/>
</g>
</svg>
